<svg id="Layer_1" data-name="Layer 1" xmlns="http://www.w3.org/2000/svg" viewBox="0 0 500 500"><defs><style>.cls-1{fill:#fff;}.cls-2{fill:#33b5aa;}.cls-3{fill:#249386;}.cls-4{fill:#85786f;}.cls-5{fill:#decdc0;}.cls-6{fill:#bca99c;}.cls-7{fill:#f0bd57;}.cls-8{fill:#ef5543;}.cls-10,.cls-9{fill:#6d6762;}.cls-10{opacity:0.2;}</style></defs><title>bookicon</title><rect class="cls-1" width="500" height="500"/><circle class="cls-2" cx="250" cy="250" r="157"/><path class="cls-3" d="M343,288.88l-.22-.21h0l-3.44-3.44-1.79-1.79h0l-5.23-5.23a4.93,4.93,0,0,0-3.55-1.46V170.34H171.23v189h84.54l-1.47,5.47L251,368.13a.94.94,0,0,0,0,1.33l.25.25.29.29a.89.89,0,0,0,1.25,0l3.31-3.31,21.45-5.75-.07-.07c.08,0,.14-.11.22-.16l.08-.06a1.59,1.59,0,0,0,.21-.15l1.11-1.11h49.64V309.75l0,0,14-14h0l.22-.22A4.7,4.7,0,0,0,343,288.88Z" transform="translate(-1 -1)"/><rect class="cls-4" x="163.23" y="162.34" width="32.44" height="189.05"/><rect class="cls-5" x="195.66" y="162.34" width="125.11" height="189.05"/><rect class="cls-6" x="225.31" y="193.26" width="70.22" height="31.66"/><path class="cls-7" d="M274.45,283.12h24.79a0,0,0,0,1,0,0v71.64a2.4,2.4,0,0,1-2.4,2.4h-20a2.4,2.4,0,0,1-2.4-2.4V283.12a0,0,0,0,1,0,0Z" transform="translate(309.39 -110.06) rotate(45)"/><polygon class="cls-5" points="245.63 359.36 269.58 352.94 252.05 335.41 245.63 359.36"/><path class="cls-8" d="M314.39,272.8h14.79a5,5,0,0,1,5,5V297.6a0,0,0,0,1,0,0H309.39a0,0,0,0,1,0,0V277.81A5,5,0,0,1,314.39,272.8Z" transform="translate(294.92 -145) rotate(45)"/><rect class="cls-9" x="245.89" y="355.69" width="2.59" height="8.22" rx="0.94" ry="0.94" transform="translate(325.82 -70.4) rotate(45)"/><path class="cls-10" d="M336,281.88l-5.45-5.44-86.27,86.27.29.29a.89.89,0,0,0,1.25,0l3.31-3.31,21.45-5.75-.07-.07a2.29,2.29,0,0,0,.51-.37l50.77-50.77L336,288.52A4.7,4.7,0,0,0,336,281.88Z" transform="translate(-1 -1)"/><rect class="cls-4" x="232.21" y="199.59" width="59" height="2.3"/><rect class="cls-4" x="232.21" y="207.94" width="59" height="2.3"/><rect class="cls-4" x="232.21" y="216.28" width="59" height="2.3"/></svg>