<?xml version="1.0" encoding="utf-8"?>
<!-- Generator: Adobe Illustrator 23.0.0, SVG Export Plug-In . SVG Version: 6.00 Build 0)  -->
<svg version="1.1" id="Layer_1" xmlns="http://www.w3.org/2000/svg" xmlns:xlink="http://www.w3.org/1999/xlink" x="0px" y="0px"
	 viewBox="0 0 792 612" style="enable-background:new 0 0 792 612;" xml:space="preserve">
<style type="text/css">
	.st0{clip-path:url(#SVGID_2_);}
	.st1{clip-path:url(#SVGID_4_);fill:url(#SVGID_5_);}
	.st2{opacity:0.71;clip-path:url(#SVGID_7_);}
	.st3{fill:#FFFFFF;}
	.st4{opacity:0.71;clip-path:url(#SVGID_9_);}
	.st5{opacity:0.71;clip-path:url(#SVGID_11_);}
	.st6{clip-path:url(#SVGID_13_);}
	.st7{fill:url(#SVGID_14_);}
	.st8{clip-path:url(#SVGID_16_);}
	.st9{fill:#262262;}
	.st10{fill:#2B3990;}
	.st11{clip-path:url(#SVGID_18_);}
	.st12{clip-path:url(#SVGID_20_);}
	.st13{clip-path:url(#SVGID_22_);}
	.st14{clip-path:url(#SVGID_24_);}
	.st15{clip-path:url(#SVGID_26_);}
	.st16{clip-path:url(#SVGID_28_);}
	.st17{clip-path:url(#SVGID_30_);}
	.st18{clip-path:url(#SVGID_32_);}
	.st19{clip-path:url(#SVGID_34_);}
	.st20{clip-path:url(#SVGID_36_);}
	.st21{clip-path:url(#SVGID_38_);}
	.st22{clip-path:url(#SVGID_40_);}
	.st23{opacity:0.26;clip-path:url(#SVGID_42_);}
	.st24{opacity:0.25;fill:url(#SVGID_43_);enable-background:new    ;}
	.st25{fill:url(#SVGID_44_);}
	.st26{fill:url(#SVGID_45_);}
	.st27{opacity:0.2;fill:url(#SVGID_46_);enable-background:new    ;}
	.st28{fill:none;}
	.st29{opacity:0.15;fill:url(#SVGID_47_);enable-background:new    ;}
	.st30{opacity:0.5;fill:url(#SVGID_48_);enable-background:new    ;}
	.st31{fill:url(#SVGID_49_);}
	.st32{opacity:3.000000e-02;fill:none;stroke:#FFFFFF;stroke-width:2;stroke-miterlimit:10;enable-background:new    ;}
	.st33{opacity:0.5;fill:url(#SVGID_50_);enable-background:new    ;}
	.st34{fill:url(#SVGID_51_);}
	.st35{fill:url(#SVGID_52_);}
	.st36{fill:url(#SVGID_53_);}
	.st37{fill:url(#SVGID_54_);}
	.st38{fill:url(#SVGID_55_);}
</style>
<g>
	<defs>
		<rect id="SVGID_1_" width="792" height="612"/>
	</defs>
	<clipPath id="SVGID_2_">
		<use xlink:href="#SVGID_1_"  style="overflow:visible;"/>
	</clipPath>
	<g class="st0">
		<g>
			<defs>
				<rect id="SVGID_3_" width="792" height="612"/>
			</defs>
			<clipPath id="SVGID_4_">
				<use xlink:href="#SVGID_3_"  style="overflow:visible;"/>
			</clipPath>
			
				<linearGradient id="SVGID_5_" gradientUnits="userSpaceOnUse" x1="396" y1="-1.71" x2="396" y2="607.3839" gradientTransform="matrix(1 0 0 -1 0 613)">
				<stop  offset="0" style="stop-color:#64499D"/>
				<stop  offset="0.6821" style="stop-color:#2B3990"/>
				<stop  offset="0.9821" style="stop-color:#050145"/>
			</linearGradient>
			<rect class="st1" width="792" height="612"/>
		</g>
		<g>
			<defs>
				<rect id="SVGID_6_" width="792" height="612"/>
			</defs>
			<clipPath id="SVGID_7_">
				<use xlink:href="#SVGID_6_"  style="overflow:visible;"/>
			</clipPath>
			<g class="st2">
				<path class="st3" d="M30.4,280.6h1.1c1.8,0,3.6-1.6,3.5-3.5s-1.5-3.5-3.5-3.5h-1.1c-1.8,0-3.6,1.6-3.5,3.5
					S28.4,280.7,30.4,280.6z"/>
				<path class="st3" d="M-23.8,330.3v-1.1c0-1.6,46.7-3,45-3c-1.6,0.1-3,1.3-3,3v1.1c0,1.6,1.3,3,3,3
					C22.8,333.2-23.8,332-23.8,330.3z"/>
				<path class="st3" d="M36.5,384.6h1.1c1.5,0,1.5-2.3,0-2.3h-1.1C35.1,382.4,35.1,384.7,36.5,384.6z"/>
				<path class="st3" d="M49.8,462.8h-1.1c-1.7,0-3.4,1.5-3.3,3.3s1.5,3.4,3.3,3.3h1.1c1.7,0,3.4-1.5,3.3-3.3S51.6,462.7,49.8,462.8
					z"/>
				<path class="st3" d="M-13.5,476.2c1.9,0,1.9-3,0-3S-15.4,476.2-13.5,476.2z"/>
				<path class="st3" d="M15.2,422.5c4.4,0,4.4-6.8,0-6.8C10.9,415.7,10.8,422.5,15.2,422.5z"/>
				<path class="st3" d="M37.6,510c2.2,0,2.2-3.5,0-3.5S35.4,510,37.6,510z"/>
				<path class="st3" d="M203.4,537.9h-1.1c-0.9,0-1.7,0.7-1.6,1.6c0,0.9,0.7,1.7,1.6,1.6h1.1c0.9,0,1.7-0.7,1.6-1.6
					C205,538.7,204.3,537.9,203.4,537.9z"/>
				<path class="st3" d="M134.1,550.5c-0.7,0.4-1.4,0.8-2.1,1.1c-1.6,0.8-2.2,3.2-1.2,4.7c1,1.6,3,2.1,4.7,1.2
					c0.7-0.4,1.4-0.8,2.1-1.1c1.6-0.8,2.2-3.2,1.2-4.7C137.7,550.2,135.8,549.6,134.1,550.5z"/>
				<path class="st3" d="M37.6,532.3c3.6,0,3.6-5.6,0-5.6S34,532.3,37.6,532.3z"/>
				<path class="st3" d="M139.8,377.5v-1.1c0-1.5-2.4-1.5-2.4,0v1.1C137.4,379,139.8,379,139.8,377.5z"/>
				<path class="st3" d="M206.1,419.3v1.1c0,1.2,1.9,1.2,1.9,0v-1.1C208,418.1,206.1,418.1,206.1,419.3z"/>
				<path class="st3" d="M227.1,342.7c-1.1-0.3-2.2-0.7-3.2-1c-1.5-0.5-3.4,0.6-3.7,2.1c-0.4,1.7,0.5,3.2,2.1,3.7
					c1.1,0.3,2.2,0.7,3.2,1c1.5,0.5,3.4-0.6,3.7-2.1C229.6,344.8,228.7,343.2,227.1,342.7z"/>
				<path class="st3" d="M155.1,336.3c1.4,0,1.4-2.2,0-2.2C153.7,334.2,153.7,336.3,155.1,336.3z"/>
				<path class="st3" d="M221.9,220.1V219c0-1.1-1-2.2-2.2-2.2c-1.2,0.1-2.2,1-2.2,2.2v1.1c0,1.1,1,2.2,2.2,2.2
					S221.9,221.4,221.9,220.1z"/>
				<path class="st3" d="M294,256.5v-2.2c0-0.8-0.7-1.6-1.6-1.6c-0.8,0-1.6,0.7-1.6,1.6v2.2c0,0.8,0.7,1.6,1.6,1.6
					S294,257.4,294,256.5z"/>
				<path class="st3" d="M249.4,248.6l-1.1-1.1c-0.6-0.6-1.7-0.7-2.3,0c-0.6,0.6-0.7,1.7,0,2.3l1.1,1.1c0.6,0.6,1.7,0.7,2.3,0
					C250,250.3,250,249.2,249.4,248.6z"/>
				<path class="st3" d="M282,204.9c-0.4-0.7-0.7-1.4-1.1-2.1c-0.7-1.3-2.5-1.7-3.7-1c-1.3,0.8-1.7,2.4-1,3.7
					c0.4,0.7,0.7,1.4,1.1,2.1c0.7,1.3,2.5,1.7,3.7,1C282.3,207.8,282.7,206.2,282,204.9z"/>
				<path class="st3" d="M289.5,88.2l1.1,1.1c0.9,0.9,2.4-0.5,1.4-1.4l-1.1-1.1C290,85.8,288.5,87.3,289.5,88.2z"/>
				<path class="st3" d="M276.9,102.8v-1.1c0-1.3-1.2-2.6-2.6-2.6c-1.4,0.1-2.6,1.1-2.6,2.6v1.1c0,1.3,1.2,2.6,2.6,2.6
					C275.7,105.3,276.9,104.2,276.9,102.8z"/>
				<path class="st3" d="M220.4,66.7l-1.1-1.1c-0.8-0.8-2.3-0.9-3.1,0s-0.9,2.3,0,3.1l1.1,1.1c0.8,0.8,2.3,0.9,3.1,0
					C221.2,69,221.3,67.6,220.4,66.7z"/>
				<path class="st3" d="M163.1,58.5v1.1c0,1,1.6,1,1.6,0v-1.1C164.7,57.4,163.1,57.4,163.1,58.5z"/>
				<path class="st3" d="M143.5,0.5c3.9,0,3.9-6,0-6S139.6,0.5,143.5,0.5z"/>
				<path class="st3" d="M94,42.4v1.1c0,1.5,1.3,3,2.9,2.9s2.9-1.3,2.9-2.9v-1.1c0-1.5-1.3-3-2.9-2.9C95.4,39.6,94,40.8,94,42.4z"/>
				<path class="st3" d="M72.9,21c2.4,0,2.4-3.7,0-3.7S70.5,21,72.9,21z"/>
				<path class="st3" d="M108.6,96.6c2.2,0,2.2-3.4,0-3.4S106.4,96.6,108.6,96.6z"/>
				<path class="st3" d="M72.8,302.6h-1.1c-1,0-1.9,0.8-1.8,1.8c0,1,0.8,1.8,1.8,1.8h1.1c1,0,1.9-0.8,1.8-1.8
					C74.6,303.4,73.8,302.6,72.8,302.6z"/>
				<path class="st3" d="M98,349.9l-1.1,1.1c-0.4,0.4,0.2,1,0.6,0.6l1.1-1.1C99,350.1,98.4,349.5,98,349.9z"/>
				<path class="st3" d="M61.2,336.2l-1.1-1.1c-0.9-0.9-2.3,0.5-1.4,1.4l1.1,1.1C60.7,338.5,62.1,337.1,61.2,336.2z"/>
				<path class="st3" d="M119.6,295.3l-1.1-1.1c-1-0.9-2.5,0.5-1.5,1.5l1.1,1.1C119.1,297.8,120.6,296.3,119.6,295.3z"/>
				<path class="st3" d="M81.9,244.5l1.1-1.1c0.6-0.6-0.3-1.4-0.9-0.9l-1.1,1.1C80.5,244.2,81.3,245,81.9,244.5z"/>
				<path class="st3" d="M-24.3,226.1c0.9,0,0.9-1.4,0-1.4S-25.2,226.1-24.3,226.1z"/>
				<path class="st3" d="M9.9,172H11c1.6,0,1.6-2.5,0-2.4H9.9C8.3,169.6,8.3,172.1,9.9,172z"/>
				<path class="st3" d="M262.3,130.4l1.1-1.1c0.6-0.6-0.3-1.5-0.9-0.9l-1.1,1.1C260.9,130,261.8,131,262.3,130.4z"/>
				<path class="st3" d="M81.8,516.2c1.5,0,1.5-2.4,0-2.4S80.3,516.2,81.8,516.2z"/>
				<path class="st3" d="M96.9,540.4c1.4,0,1.5-2.3,0-2.3S95.4,540.4,96.9,540.4z"/>
				<path class="st3" d="M73.9,491c0.7,0,0.7-1.1,0-1.1C73.1,489.8,73.1,491,73.9,491z"/>
				<path class="st3" d="M-13.1,498.6c1.7,0,1.7-2.7,0-2.7C-14.8,496-14.8,498.6-13.1,498.6z"/>
				<path class="st3" d="M12.4,507c0.9,0,0.9-1.5,0-1.5S11.5,507,12.4,507z"/>
				<path class="st3" d="M15.8,14.1c0.5,0,0.5-0.8,0-0.8C15.2,13.3,15.2,14.1,15.8,14.1z"/>
				<path class="st3" d="M30.7,4.6c1.1,0,1.1-1.6,0-1.6C29.6,2.9,29.6,4.6,30.7,4.6z"/>
				<path class="st3" d="M9.6,29c1.6,0,1.6-2.4,0-2.4S8,29,9.6,29z"/>
				<path class="st3" d="M75.6,116.8c1.1,0,1.1-1.7,0-1.7C74.5,115,74.5,116.8,75.6,116.8z"/>
				<path class="st3" d="M149.4,29c0.5,0,0.5-0.8,0-0.8S148.9,29,149.4,29z"/>
				<path class="st3" d="M212.3,120.3c0.4,0,0.4-0.6,0-0.6S211.9,120.3,212.3,120.3z"/>
				<path class="st3" d="M205,135c1.2,0,1.2-1.8,0-1.8S203.8,135,205,135z"/>
				<path class="st3" d="M159.9,427.9c1.7,0,1.7-2.7,0-2.7C158.1,425.2,158.1,427.9,159.9,427.9z"/>
				<path class="st3" d="M150.5,197.5c2.6,0,2.6-4,0-4S147.9,197.5,150.5,197.5z"/>
				<path class="st3" d="M113.1,272.3c1.1,0,1.1-1.7,0-1.7S112,272.3,113.1,272.3z"/>
				<path class="st3" d="M41.3,183.8l-1.1-1.1c-0.9-0.9-2.3,0.5-1.4,1.4l1.1,1.1C40.8,186.1,42.2,184.7,41.3,183.8z"/>
				<path class="st3" d="M162.5,126.3v-1.1c0-0.9-0.8-1.8-1.7-1.7c-0.9,0-1.7,0.8-1.7,1.7v1.1c0,0.9,0.8,1.8,1.7,1.7
					S162.5,127.2,162.5,126.3z"/>
				<path class="st3" d="M32.9,74.8v-1.1c0-1.6-1.4-3.2-3.1-3.1s-3.2,1.4-3.1,3.1v1.1c0,1.6,1.4,3.2,3.1,3.1
					C31.4,77.8,32.9,76.5,32.9,74.8z"/>
				<path class="st3" d="M11,146.1V145c0-0.8-0.7-1.6-1.5-1.5c-0.8,0-1.6,0.7-1.5,1.5v1.1c0,0.8,0.7,1.6,1.5,1.5
					C10.3,147.6,11,147,11,146.1z"/>
			</g>
		</g>
		<g>
			<defs>
				<rect id="SVGID_8_" width="792" height="612"/>
			</defs>
			<clipPath id="SVGID_9_">
				<use xlink:href="#SVGID_8_"  style="overflow:visible;"/>
			</clipPath>
			<g class="st4">
				<path class="st3" d="M347.5,288h1.1c1.8,0,3.6-1.6,3.5-3.5s-1.5-3.5-3.5-3.5h-1.1c-1.8,0-3.6,1.6-3.5,3.5S345.5,288,347.5,288z"
					/>
				<path class="st3" d="M293.3,337.6v-1.1c0-1.6-1.3-3-3-3c-1.6,0.1-3,1.3-3,3v1.1c0,1.6,1.3,3,3,3
					C291.9,340.5,293.3,339.3,293.3,337.6z"/>
				<path class="st3" d="M353.6,392h1.1c1.5,0,1.5-2.3,0-2.3h-1.1C352.1,389.7,352.1,392,353.6,392z"/>
				<path class="st3" d="M414.8,470.1h-1.1c-1.7,0-3.4,1.5-3.3,3.3s1.5,3.4,3.3,3.3h1.1c1.7,0,3.4-1.5,3.3-3.3
					C418.1,471.6,416.7,470.1,414.8,470.1z"/>
				<path class="st3" d="M303.5,483.5c1.9,0,1.9-3,0-3S301.6,483.5,303.5,483.5z"/>
				<path class="st3" d="M284.3,429.9c4.4,0,4.4-6.8,0-6.8C279.9,423,279.9,429.9,284.3,429.9z"/>
				<path class="st3" d="M354.7,517.3c2.2,0,2.2-3.5,0-3.5C352.4,513.8,352.4,517.3,354.7,517.3z"/>
				<path class="st3" d="M520.4,545.2h-1.1c-0.9,0-1.7,0.7-1.6,1.6c0,0.9,0.7,1.7,1.6,1.6h1.1c0.9,0,1.7-0.7,1.6-1.6
					C522,546,521.3,545.2,520.4,545.2z"/>
				<path class="st3" d="M451.1,557.9c-0.7,0.4-1.4,0.8-2.1,1.1c-1.6,0.8-2.2,3.2-1.2,4.7c1,1.6,3,2.1,4.7,1.2
					c0.7-0.4,1.4-0.8,2.1-1.1c1.6-0.8,2.2-3.2,1.2-4.7C454.8,557.5,452.8,557,451.1,557.9z"/>
				<path class="st3" d="M354.6,539.6c3.6,0,3.6-5.6,0-5.6C351.1,534.1,351.1,539.6,354.6,539.6z"/>
				<path class="st3" d="M504.8,384.8v-1.1c0-1.5-2.4-1.5-2.4,0v1.1C502.5,386.3,504.9,386.3,504.8,384.8z"/>
				<path class="st3" d="M571.2,426.6v1.1c0,1.2,1.9,1.2,1.9,0v-1.1C573,425.4,571.2,425.4,571.2,426.6z"/>
				<path class="st3" d="M592.2,350c-1.1-0.3-2.2-0.7-3.2-1c-1.5-0.5-3.4,0.6-3.7,2.1c-0.4,1.7,0.5,3.2,2.1,3.7
					c1.1,0.3,2.2,0.7,3.2,1c1.5,0.5,3.4-0.6,3.7-2.1C594.7,352.1,593.8,350.5,592.2,350z"/>
				<path class="st3" d="M520.1,343.7c1.4,0,1.4-2.2,0-2.2S518.7,343.7,520.1,343.7z"/>
				<path class="st3" d="M587,227.5v-1.1c0-1.1-1-2.2-2.2-2.2c-1.2,0.1-2.2,1-2.2,2.2v1.1c0,1.1,1,2.2,2.2,2.2
					C586,229.6,587,228.7,587,227.5z"/>
				<path class="st3" d="M659.1,263.9v-2.2c0-0.8-0.7-1.6-1.6-1.6c-0.8,0-1.6,0.7-1.6,1.6v2.2c0,0.8,0.7,1.6,1.6,1.6
					C658.3,265.4,659.1,264.7,659.1,263.9z"/>
				<path class="st3" d="M614.4,255.9l-1.1-1.1c-0.6-0.6-1.7-0.7-2.3,0c-0.6,0.6-0.7,1.7,0,2.3l1.1,1.1c0.6,0.6,1.7,0.7,2.3,0
					C615,257.6,615.1,256.6,614.4,255.9L614.4,255.9z"/>
				<path class="st3" d="M647,212.2c-0.4-0.7-0.7-1.4-1.1-2.1c-0.7-1.3-2.5-1.7-3.7-1c-1.3,0.8-1.7,2.4-1,3.7
					c0.4,0.7,0.7,1.4,1.1,2.1c0.7,1.3,2.5,1.7,3.7,1C647.3,215.1,647.7,213.6,647,212.2z"/>
				<path class="st3" d="M606.5,95.5l1.1,1.1c0.9,0.9,2.4-0.5,1.4-1.4l-1.1-1.1C607,93.2,605.6,94.6,606.5,95.5z"/>
				<path class="st3" d="M594,110.1V109c0-1.3-1.2-2.6-2.6-2.6c-1.4,0.1-2.6,1.1-2.6,2.6v1.1c0,1.3,1.2,2.6,2.6,2.6
					C592.8,112.6,594,111.6,594,110.1z"/>
				<path class="st3" d="M537.5,74.1l-1.1-1.1c-0.8-0.8-2.3-0.9-3.1,0s-0.9,2.3,0,3.1l1.1,1.1c0.8,0.8,2.3,0.9,3.1,0
					S538.4,74.9,537.5,74.1z"/>
				<path class="st3" d="M480.1,65.8v1.1c0,1,1.6,1,1.6,0v-1.1C481.7,64.8,480.1,64.8,480.1,65.8z"/>
				<path class="st3" d="M460.5,7.9c3.9,0,3.9-6,0-6C456.7,1.8,456.7,7.9,460.5,7.9z"/>
				<path class="st3" d="M411.1,49.8v1.1c0,1.5,1.3,3,2.9,2.9s2.9-1.3,2.9-2.9v-1.1c0-1.5-1.3-3-2.9-2.9
					C412.4,46.9,411.1,48.1,411.1,49.8z"/>
				<path class="st3" d="M389.9,28.4c2.4,0,2.4-3.7,0-3.7C387.6,24.7,387.6,28.4,389.9,28.4z"/>
				<path class="st3" d="M425.7,103.9c2.2,0,2.2-3.4,0-3.4S423.5,103.9,425.7,103.9z"/>
				<path class="st3" d="M437.9,309.9h-1.1c-1,0-1.9,0.8-1.8,1.8c0,1,0.8,1.8,1.8,1.8h1.1c1,0,1.9-0.8,1.8-1.8
					C439.6,310.8,438.9,309.9,437.9,309.9z"/>
				<path class="st3" d="M463.1,357.2l-1.1,1.1c-0.4,0.4,0.2,1,0.6,0.6l1.1-1.1C464.1,357.4,463.5,356.8,463.1,357.2z"/>
				<path class="st3" d="M426.2,343.5l-1.1-1.1c-0.9-0.9-2.3,0.5-1.4,1.4l1.1,1.1C425.7,345.8,427.1,344.4,426.2,343.5z"/>
				<path class="st3" d="M484.7,302.7l-1.1-1.1c-1-0.9-2.5,0.5-1.5,1.5l1.1,1.1C484.2,305.1,485.7,303.6,484.7,302.7z"/>
				<path class="st3" d="M446.9,251.8l1.1-1.1c0.6-0.6-0.3-1.4-0.9-0.9l-1.1,1.1C445.5,251.5,446.4,252.4,446.9,251.8z"/>
				<path class="st3" d="M292.8,233.5c0.9,0,0.9-1.4,0-1.4C291.9,232,291.9,233.5,292.8,233.5z"/>
				<path class="st3" d="M279,179.4h1.1c1.6,0,1.6-2.5,0-2.4H279C277.4,176.9,277.4,179.4,279,179.4z"/>
				<path class="st3" d="M579.4,137.7l1.1-1.1c0.6-0.6-0.3-1.5-0.9-0.9l-1.1,1.1C577.9,137.4,578.8,138.3,579.4,137.7z"/>
				<path class="st3" d="M446.9,523.5c1.5,0,1.5-2.4,0-2.4C445.3,521.1,445.3,523.5,446.9,523.5z"/>
				<path class="st3" d="M414,547.7c1.4,0,1.5-2.3,0-2.3S412.5,547.7,414,547.7z"/>
				<path class="st3" d="M438.9,498.3c0.7,0,0.7-1.1,0-1.1S438.2,498.3,438.9,498.3z"/>
				<path class="st3" d="M303.9,505.9c1.7,0,1.7-2.7,0-2.7C302.2,503.3,302.2,505.9,303.9,505.9z"/>
				<path class="st3" d="M281.5,514.3c0.9,0,0.9-1.5,0-1.5C280.6,512.9,280.6,514.3,281.5,514.3z"/>
				<path class="st3" d="M332.9,21.5c0.5,0,0.5-0.8,0-0.8C332.3,20.6,332.3,21.5,332.9,21.5z"/>
				<path class="st3" d="M347.7,11.9c1.1,0,1.1-1.6,0-1.6C346.7,10.3,346.7,11.9,347.7,11.9z"/>
				<path class="st3" d="M326.6,36.3c1.6,0,1.6-2.4,0-2.4C325.1,33.9,325.1,36.3,326.6,36.3z"/>
				<path class="st3" d="M392.7,124.1c1.1,0,1.1-1.7,0-1.7S391.6,124.1,392.7,124.1z"/>
				<path class="st3" d="M466.5,36.3c0.5,0,0.5-0.8,0-0.8C465.9,35.5,465.9,36.3,466.5,36.3z"/>
				<path class="st3" d="M529.3,127.7c0.4,0,0.4-0.6,0-0.6C528.9,127,528.9,127.7,529.3,127.7z"/>
				<path class="st3" d="M522,142.4c1.2,0,1.2-1.8,0-1.8C520.8,140.5,520.8,142.4,522,142.4z"/>
				<path class="st3" d="M524.9,435.2c1.7,0,1.7-2.7,0-2.7C523.2,432.6,523.2,435.2,524.9,435.2z"/>
				<path class="st3" d="M515.6,204.8c2.6,0,2.6-4,0-4C513,200.9,513,204.8,515.6,204.8z"/>
				<path class="st3" d="M478.2,279.6c1.1,0,1.1-1.7,0-1.7S477.1,279.6,478.2,279.6z"/>
				<path class="st3" d="M406.4,191.2l-1.1-1.1c-0.9-0.9-50.3,0.5-49.4,1.4l49.1,1.1C405.9,193.4,407.3,192,406.4,191.2z"/>
				<path class="st3" d="M479.5,133.6v-1.1c0-0.9-0.8-1.8-1.7-1.7c-0.9,0-1.7,0.8-1.7,1.7v1.1c0,0.9,0.8,1.8,1.7,1.7
					C478.7,135.3,479.5,134.6,479.5,133.6z"/>
				<path class="st3" d="M349.9,82.1V81c0-1.6-1.4-3.2-3.1-3.1s-3.2,1.4-3.1,3.1v1.1c0,1.6,1.4,3.2,3.1,3.1
					C348.5,85.2,350,83.8,349.9,82.1z"/>
				<path class="st3" d="M280.1,153.4v-1.1c0-0.8-0.7-1.6-1.5-1.5c-0.8,0-1.6,0.7-1.5,1.5v1.1c0,0.8,0.7,1.6,1.5,1.5
					C279.4,154.9,280.1,154.3,280.1,153.4z"/>
			</g>
		</g>
		<g>
			<defs>
				<rect id="SVGID_10_" width="792" height="612"/>
			</defs>
			<clipPath id="SVGID_11_">
				<use xlink:href="#SVGID_10_"  style="overflow:visible;"/>
			</clipPath>
			<g class="st5">
				<path class="st3" d="M704.6,255.9h1.1c1.8,0,3.6-1.6,3.5-3.5s-1.5-3.5-3.5-3.5h-1.1c-1.8,0-3.6,1.6-3.5,3.5
					S702.7,256,704.6,255.9z"/>
				<path class="st3" d="M650.5,305.6v-1.1c0-1.6-1.3-3-3-3c-1.6,0.1-3,1.3-3,3v1.1c0,1.6,1.3,3,3,3
					C649.1,308.5,650.5,307.2,650.5,305.6z"/>
				<path class="st3" d="M710.8,359.9h1.1c1.5,0,1.5-2.3,0-2.3h-1.1C709.3,357.7,709.3,360,710.8,359.9z"/>
				<path class="st3" d="M724,438h-1.1c-1.7,0-3.4,1.5-3.3,3.3s1.5,3.4,3.3,3.3h1.1c1.7,0,3.4-1.5,3.3-3.3
					C727.3,439.6,725.9,438,724,438z"/>
				<path class="st3" d="M660.7,451.5c1.9,0,1.9-3,0-3S658.8,451.5,660.7,451.5z"/>
				<path class="st3" d="M641.5,397.8c4.4,0,4.4-6.8,0-6.8S637.1,397.8,641.5,397.8z"/>
				<path class="st3" d="M711.9,485.3c2.2,0,2.2-3.5,0-3.5C709.6,481.8,709.6,485.3,711.9,485.3z"/>
				<path class="st3" d="M760.3,525.8c-0.7,0.4-1.4,0.8-2.1,1.1c-1.6,0.8-2.2,3.2-1.2,4.7c1,1.6,3,2.1,4.7,1.2
					c0.7-0.4,1.4-0.8,2.1-1.1c1.6-0.8,2.2-3.2,1.2-4.7C764,525.4,762,524.9,760.3,525.8z"/>
				<path class="st3" d="M663.8,507.6c3.6,0,3.6-5.6,0-5.6C660.3,502,660.2,507.6,663.8,507.6z"/>
				<path class="st3" d="M789.3,33.8v1.1c0,1,1.6,1,1.6,0v-1.1C790.9,32.7,789.3,32.7,789.3,33.8z"/>
				<path class="st3" d="M720.3,17.7v1.1c0,1.5,1.3,3,2.9,2.9s2.9-1.3,2.9-2.9v-1.1c0-1.5-1.3-3-2.9-2.9S720.3,16.1,720.3,17.7z"/>
				<path class="st3" d="M734.8,71.9c2.2,0,2.2-3.4,0-3.4S732.6,71.9,734.8,71.9z"/>
				<path class="st3" d="M747.1,277.8H746c-1,0-1.9,0.8-1.8,1.8c0,1,0.8,1.8,1.8,1.8h1.1c1,0,1.9-0.8,1.8-1.8
					C748.8,278.7,748.1,277.8,747.1,277.8z"/>
				<path class="st3" d="M772.3,325.2l-1.1,1.1c-0.4,0.4,0.2,1,0.6,0.6l1.1-1.1C773.3,325.4,772.7,324.8,772.3,325.2z"/>
				<path class="st3" d="M735.4,311.4l-1.1-1.1c-0.9-0.9-2.3,0.5-1.4,1.4l1.1,1.1C734.9,313.7,736.3,312.3,735.4,311.4z"/>
				<path class="st3" d="M793.9,270.6l-1.1-1.1c-1-0.9-2.5,0.5-1.5,1.5l1.1,1.1C793.4,273,794.9,271.5,793.9,270.6z"/>
				<path class="st3" d="M756.1,219.7l1.1-1.1c0.6-0.6-0.3-1.4-0.9-0.9l-1.1,1.1C754.7,219.4,755.6,220.3,756.1,219.7z"/>
				<path class="st3" d="M650,201.4c0.9,0,0.9-1.4,0-1.4S649.1,201.4,650,201.4z"/>
				<path class="st3" d="M636.1,147.3h1.1c1.6,0,1.6-2.5,0-2.4h-1.1C634.6,144.9,634.6,147.3,636.1,147.3z"/>
				<path class="st3" d="M756.1,491.5c1.5,0,1.5-2.4,0-2.4C754.5,489.1,754.5,491.5,756.1,491.5z"/>
				<path class="st3" d="M723.1,515.6c1.4,0,1.5-2.3,0-2.3C721.7,513.4,721.7,515.6,723.1,515.6z"/>
				<path class="st3" d="M748.1,466.3c0.7,0,0.7-1.1,0-1.1C747.4,465.1,747.4,466.3,748.1,466.3z"/>
				<path class="st3" d="M661.1,473.9c1.7,0,1.7-2.7,0-2.7S659.4,473.9,661.1,473.9z"/>
				<path class="st3" d="M638.7,482.3c0.9,0,0.9-1.5,0-1.5S637.7,482.3,638.7,482.3z"/>
				<path class="st3" d="M635.8,4.3c1.6,0,1.6-2.4,0-2.4C634.3,1.9,634.3,4.3,635.8,4.3z"/>
				<path class="st3" d="M701.9,92.1c1.1,0,1.1-1.7,0-1.7C700.8,90.3,700.8,92.1,701.9,92.1z"/>
				<path class="st3" d="M775.6,4.3c0.5,0,0.5-0.8,0-0.8S775.1,4.3,775.6,4.3z"/>
				<path class="st3" d="M787.3,247.5c1.1,0,1.1-1.7,0-1.7C786.3,245.9,786.3,247.5,787.3,247.5z"/>
				<path class="st3" d="M715.6,159.1l-1.1-1.1c-0.9-0.9-2.3,0.5-1.4,1.4l1.1,1.1C715.1,161.3,716.5,160,715.6,159.1z"/>
				<path class="st3" d="M788.7,101.6v-1.1c0-0.9-0.8-1.8-1.7-1.7c-0.9,0-1.7,0.8-1.7,1.7v1.1c0,0.9,0.8,1.8,1.7,1.7
					S788.7,102.5,788.7,101.6z"/>
				<path class="st3" d="M659.1,50v-1.1c0-1.6-1.4-3.2-3.1-3.1s-3.2,1.4-3.1,3.1V50c0,1.6,1.4,3.2,3.1,3.1
					C657.7,53.1,659.2,51.8,659.1,50z"/>
				<path class="st3" d="M637.3,121.4v-1.1c0-0.8-0.7-1.6-1.5-1.5c-0.8,0-1.6,0.7-1.5,1.5v1.1c0,0.8,0.7,1.6,1.5,1.5
					C636.5,122.9,637.3,122.2,637.3,121.4z"/>
			</g>
		</g>
		<g>
			<defs>
				<rect id="SVGID_12_" width="792" height="612"/>
			</defs>
			<clipPath id="SVGID_13_">
				<use xlink:href="#SVGID_12_"  style="overflow:visible;"/>
			</clipPath>
			<g class="st6">
				
					<radialGradient id="SVGID_14_" cx="167" cy="278.55" r="156.5251" gradientTransform="matrix(1 0 0 -1 0 613)" gradientUnits="userSpaceOnUse">
					<stop  offset="0" style="stop-color:#F1F2F2"/>
					<stop  offset="1" style="stop-color:#FFEE76"/>
				</radialGradient>
				<path class="st7" d="M215.1,412.1c-70.4,0-127.5-57.1-127.5-127.5c0-44.5,22.8-83.6,57.3-106.5C68.8,189,10.3,254.5,10.3,333.6
					c0,86.8,70.4,157.2,157.2,157.2c80.8,0,147.3-61,156.2-139.4C301.2,387.8,261,412.1,215.1,412.1z"/>
				<path class="st3" d="M216.5,411.7c-34.1-0.2-67.1-13.8-91.1-38.3S88.2,315.3,89,281c0.9-37.9,19.1-74,49-97.4
					c1.7-1.3,3.5-2.6,5.3-3.9c0.3-0.2,3-2,3-2.1s-3,0.5-2.8,0.4c-4.1,0.7-8.2,1.5-12.3,2.5c-4.9,1.2-9.8,2.6-14.6,4.2
					c-15.8,5.2-30.7,13-44.1,22.9C15.8,249.7-6.3,326.7,20,392.4c25.7,64.1,92.2,104.5,160.8,98c64.5-6.1,121-51,139.1-113.7
					c2.4-8.4,4.1-17,5.1-25.7c0,0.4-2.7,0.4-2.9,0.8C299.4,388.4,259.8,411.5,216.5,411.7c-1,0-1.9,0.8-2.9,0.8
					c45-0.3,87.5-23.1,111.5-61.4c-1,0.3-1.9,0.5-2.9,0.8c-7.9,67.8-61.1,126.4-129.4,136.8c-64.9,9.9-130.6-22.6-162-80.2
					C-1.1,349.9,8.3,275.4,53.6,226.6c10.9-11.8,23.6-21.8,37.5-29.8c7-4,14.4-7.5,21.9-10.4c5.9-2.2,11.9-4.1,18.1-5.6
					c2.2-0.5,4.5-1,6.7-1.4c0.9-0.2,1.8-0.3,2.7-0.5c1.9-0.3,3.1-1.3,1.5,0.4c-2.9,3-7.2,5.2-10.5,7.9c-3.3,2.8-6.5,5.8-9.6,8.9
					c-6.1,6.3-11.5,13.2-16.2,20.5c-9.6,15.1-15.9,32.1-18.5,49.8c-4.8,32.9,3.6,67,23.3,93.8c18.8,25.6,47,43.7,78.2,49.8
					c8.1,1.6,16.4,2.3,24.7,2.4C214.6,412.5,215.6,411.7,216.5,411.7L216.5,411.7z"/>
			</g>
		</g>
		<g>
			<defs>
				<rect id="SVGID_15_" width="792" height="612"/>
			</defs>
			<clipPath id="SVGID_16_">
				<use xlink:href="#SVGID_15_"  style="overflow:visible;"/>
			</clipPath>
			<g class="st8">
				<path class="st9" d="M0,342.8V612h792V225.2c-25.9-14.7-58.1-8-74.6,14c-14.2,18.9-14.4,46.1,0,66.8
					c-19.2,10.3-27.7,32.4-21.1,50.8c5.4,14.8,19.9,25.2,36.8,26.3c-8.5-9.5-22.1-11.4-31.6-5.3c-7.4,4.8-11.4,13.9-10.3,23.4
					c-5.7,7.2-14.7,20.6-19.5,39.8c-4.8,18.9-3.3,34.9-1.8,43.9c-6-8.6-16.1-13.3-26.3-12.3c-11.5,1.2-21.3,9.5-24.6,21.1
					c7.3-18.1-1.2-38.4-17.5-45.6c-14.3-6.3-32.2-1.4-42.1,12.3c-10.3-12.9-28.3-16.5-42.1-8.8c-12.7,7.1-19.3,22.2-15.8,36.8
					c-0.9-0.5-17.7-10.6-35.1-1.8c-12.2,6.2-19.8,19.3-19.3,33.3c-8-8.4-18.2-16-28.1-14c-13,2.6-20.1,20.8-23.1,19.3
					c-2.6-1.3,4.3-13.3,0.3-24.6c-3.4-9.6-13.4-14.7-21.1-17.5c9-15.7,3.7-35.3-10.5-43.9c-12.6-7.6-29.9-4.9-40.4,7
					c-1.8-18-17.9-30.3-33.3-28.1c-12.8,1.9-23.5,13.5-24.6,28.1c-1.7-1.2-33.8-23.9-70.2-8.8c-25.3,10.6-42.4,35.2-43.9,63.2
					c18.1-31.5,4.8-70.8-24.6-84.2c-26-11.9-59.7-1.3-75.4,26.3c22.3-19.4,27.1-51.8,12.3-75.4C51.5,346.3,25.2,336.1,0,342.8
					L0,342.8z"/>
				<path class="st10" d="M-3.6,340.1v269.2c0,2.7,3.4,6.7,6.2,6.7h759.8c10,0,20.7,1.1,30.7,0h1.3c0.8,0,0.9-0.9,0.9-1.4V243.7
					c0-5,0.5-10.3,0-15.3v-0.7c0-2.5-2.7-5.2-4.7-6.3c-23.1-12.7-53.3-10.7-72.2,8.6c-20.4,20.8-19.4,53-3.8,76.2
					c-0.3-1.4-0.5-2.8-0.8-4.1c-17.4,9.7-27.5,30-22.3,49.7c5.3,19.9,23.8,33.7,43.9,35.3c3,0.2-1.5-6-1.9-6.4
					c-8.4-8.9-21.6-13.7-33.2-8.1c-5.9,2.9-10.2,8.3-12.1,14.5c-1,3.3-0.4,6.6-1.1,9.8c-0.5,2.4-2.5,4.4-3.9,6.4
					c-15.5,23-21.7,51.4-17.2,78.8c1.7,0.4,3.5,0.9,5.2,1.3c-7.2-9.8-18.9-16.5-31.3-14.9c-11.9,1.5-21.3,10.4-24.7,21.7
					c-0.8,2.8,5.9,9.7,7,6.7c6.8-17.9-0.5-38.3-16-49.2c-16.4-11.4-38.4-7-50.3,8.6c1.6,0.8,3.2,1.7,4.8,2.5
					c-10.4-12.5-27.2-19.4-42.9-13.1c-16.4,6.5-23.6,24.2-20,40.8c0.8-0.6,1.5-1.3,2.3-1.9c-9.8-6-23.1-7.6-33.8-3.4
					c-14.8,5.8-23.3,20.4-23.1,36c1.4,0.1,2.9,0.2,4.3,0.3c-8.8-9-22.5-20.5-35.8-14.3c-4.8,2.3-8.5,6.2-11.8,10.3
					c-1.3,1.7-2.6,3.5-4,5.1c-0.4,0.5-1.3,1.2-1.5,1.7c-0.7,1.6-1.9-0.8,0.7,1.3c1.1,1.3,2.1,2.6,3.2,3.9c0.8,1.7,0.2,0.3,0.4-0.6
					c0.3-1,0.4-2.1,0.7-3.2c0.5-2.5,1-5,1.2-7.5c0.5-5.8-0.5-11.5-3.4-16.6c-5.3-9.4-14.5-14.9-24.3-18.7c1.8,2.5,3.6,4.9,5.4,7.4
					c8.7-16,3.8-35.7-9.9-47.2c-14.3-12-35-10.5-47.6,3.1c2.3,2.2,4.5,4.3,6.8,6.5c-2-16.5-14.9-32.5-32-34.8
					c-18-2.3-31.5,12.6-33.1,29.5c1.1-0.2,2.3-0.3,3.4-0.5c-18.4-13.3-44.1-18.7-66-12.1c-29.8,8.9-49.6,36.4-51.5,67
					c-0.1,2.1,5.4,9.1,7.1,6c13-23.4,9.9-52.1-6.5-73c-16.1-20.5-43.1-28.8-67.6-19.6c-14.1,5.2-25.4,15.2-32.9,28.1
					c-1.3,2.1,4.6,9.1,6.7,7.2c21-18.7,27.4-49.8,14.2-74.9c-13.7-26.2-43.7-40.2-72.5-33c-3.1,0.8,2.4,8.9,5.3,8.1
					c24.2-6,52.6,2.9,63,27c9.7,22.6,1.6,49.1-16.3,65c2.2,2.4,4.5,4.8,6.7,7.2c14.8-25.2,48.3-38.9,75.4-24.8
					c27.5,14.3,31.7,50.8,17.6,76c2.4,2,4.7,4,7.1,6c1.8-29.1,21.3-55.6,49.6-64.1c20-6,44.1-2.1,61.1,10.2c1.3,0.9,3.2,1.7,3.4-0.5
					c1.3-13,10.8-25.1,24.2-26.7c13.8-1.7,24.9,8,26.5,21.4c0.2,1.6,4.6,8.9,6.8,6.5c9.5-10.3,25.9-15,38.5-7
					c12.3,7.8,12,25.2,5.7,36.7c-1.4,2.6,3.5,6.6,5.4,7.4c5,1.9,10.8,4.4,14.1,8.8c3.8,5.1,3,12.2,1.8,18c-0.7,3.4-2,6.9-0.4,10.2
					c1.1,2.3,4.2,6,7.2,4.9c2.3-0.8,4-4,5.3-5.8c2.6-3.3,5.2-6.6,8.5-9.3c11.8-9.4,23.9-0.9,32.8,8.2c0.9,0.9,4.4,3.2,4.3,0.3
					c-0.4-26.6,28.6-44.8,51.9-30.5c1.8,1.1,2.7-0.2,2.3-1.9c-3-13.9,3.6-28.4,16.2-35.1c12-6.3,27.9-3.9,36.7,6.6
					c0.5,0.7,3.7,3.9,4.8,2.5c9.2-12.2,26-18.8,40.6-12.2c14.6,6.7,17.6,24.4,12.3,38.3c2.3,2.2,4.7,4.5,7,6.7
					c6-19.3,32.3-28.9,45.7-10.8c0.6,0.8,5.8,4.7,5.2,1.3c-4.1-24.9,0.8-50.6,13.8-72.2c1.3-2.2,2.7-4.3,4.2-6.4
					c0.9-1.3,2.7-2.8,3.2-4.3c0.8-2.7-0.1-6.3,0.5-9.2c0.7-3.1,2.1-6.2,4.1-8.8c8.2-10.6,24-10.7,33-1.2c-0.6-2.1-1.3-4.3-1.9-6.4
					c-17.1-1.4-31.9-12.6-32.8-30.5c-0.8-16.3,9-30.9,22.9-38.6c1.2-0.7-0.3-3.5-0.8-4.1c-14.6-21.6-12.2-51.9,7.3-69.8
					c18-16.5,45-18.6,66-7c-1.6-2.1-3.1-4.2-4.7-6.3v380.9c0,1.2-0.6,4.1,0,5.2c0.1,0.1,0,0.5,0,0.7c0.3-0.5,0.6-1,0.9-1.4H29.1
					c-10.1,0-20.7-0.9-30.7,0h-1.3c2.1,2.2,4.1,4.5,6.2,6.7V345.3C3.6,342.6-3.6,336.2-3.6,340.1L-3.6,340.1z"/>
			</g>
		</g>
		<g>
			<defs>
				<rect id="SVGID_17_" width="792" height="612"/>
			</defs>
			<clipPath id="SVGID_18_">
				<use xlink:href="#SVGID_17_"  style="overflow:visible;"/>
			</clipPath>
			<g class="st11">
				<path class="st9" d="M0,532.6V612h792V489.7c-11.2-15.9-31.1-21.8-46.5-15.3c-19,8-28.9,33.7-17.5,55.7
					c-10.4-39.2-50-55.8-73.7-45.1c-21.9,9.9-35.6,45.5-19.3,78.5c-6.5-17.4-21.6-29.6-38.6-31.1c-21.9-1.9-43.8,14.4-49.1,39
					c-8.5-30.5-37-48.8-63.2-44.3c-19.3,3.3-35.5,18.6-42.1,39c3.5-31.6-17.9-57.5-40.4-60.1c-25-2.9-54.8,22.9-52.6,59.2
					c-1-15.4-11.6-28.6-26.3-32.9c-15.1-4.4-31.4,1.5-40.4,14.4c2.9-14.7-6.8-29.1-21.1-32c-13.8-2.8-27.8,5.8-31.6,19.7
					c-1-25-19.2-43.4-36.8-44.3c-20.9-1-44.4,22.4-40.4,53c-1.6-1.5-16.2-14.7-36.8-10.9c-21.9,3.9-30.9,23.4-31.6,25
					c4.7-22.3-8.4-44.6-29.8-51.3C32.3,499.1,8.2,510.8,0,532.6L0,532.6z"/>
				<path class="st10" d="M-3.4,530.4v79.4c0,2.5,1.9,6.9,4.9,6.9h759.8c10.2,0,20.5,0.4,30.7,0h1.3c1.3,0,1.8-1.3,1.8-2.4V494.6
					c0-6.7-4.2-11.4-9.2-15.8c-9.1-8-21.4-12.9-33.6-11.3c-13,1.6-23.5,10.3-28.8,22.1c-6.2,13.5-4.8,28.8,1.7,41.8
					c2.1,4.3,7,4.2,5.5-1.4c-6.8-24.5-26.1-46.4-51.7-51.7c-10-2.1-20.8-1.6-29.9,3.5c-11.3,6.3-18.8,18.3-22.3,30.5
					c-5.1,17.5-2.4,36.1,5.4,52.4c2,4.2,7.6,4.1,5.5-1.4c-7.9-20.3-26.7-37.4-49.7-35.7c-22.2,1.7-39.4,19.5-44.3,40.5
					c2.1,1,4.2,2.1,6.3,3.1c-7.1-24.5-27.3-45.7-53.3-49.1c-27.1-3.5-49.9,16.1-58.2,40.7l6.6,5.4c2.4-24.8-9.4-52.2-32.7-63.3
					c-20.2-9.6-42.8,0.8-55.3,17.8c-8.6,11.6-12.4,25.9-11.7,40.2c2.2,1.1,4.5,2.2,6.7,3.4c-1.4-16.6-12.4-32.2-28.3-37.8
					c-16.4-5.8-34.5,0.4-44.5,14.3c2,2.4,4.1,4.8,6.1,7.1c2.7-16-5.9-33.2-21.7-38.7c-16-5.6-32.7,4.3-37.5,20.1l6.6,5.4
					c-1.3-23.4-18.9-53.9-46.1-51c-26.8,2.9-40.6,32.2-37.8,56.4c1.4-0.7,2.9-1.5,4.3-2.2c-11.6-10.7-28.4-15.5-43.7-11.2
					C97,532.1,86.2,542,80.8,554c2.2,2.1,4.3,4.2,6.5,6.4c4.7-24.2-8.7-50.3-32.4-58.5s-49.1,4.7-58.1,27.6c-1.3,3.3,4.7,11,6.5,6.4
					c7.4-18.7,27.7-30.5,47.7-26.5c20.8,4.2,33.9,23.9,29.9,44.7c-0.6,2.9,4.3,11.3,6.5,6.4c4.2-9.3,13.9-18.4,24.3-22.1
					c13.3-4.7,29.4-1.4,39.9,8.2c2.4,2.2,4.7,1,4.3-2.2c-2.4-20.5,9.6-44,30.9-48.9c22-5.1,38.5,16.9,39.5,36.7
					c0.1,2.2,1,4.6,2.8,5.9c1.3,0.9,3.2,1.5,3.8-0.5c3.5-11.5,14.3-19.6,26.4-18.7c12.8,0.9,21.8,12,19.7,24.6
					c-0.4,2.1,3.3,11,6.1,7.1c8.2-11.3,22.2-17.5,36.1-14.4c13.7,3,23.2,13.9,24.4,27.8c0.3,3.1,7,8.8,6.7,3.4
					c-1.2-25.3,15.4-53.2,42.2-56.7c11.9-1.6,23.2,3.5,31.3,12.1c10.4,11,14.1,26.2,12.7,41c-0.3,2.6,5,10.1,6.6,5.4
					c7.4-21.9,27-39.5,51.1-38.2c23.1,1.3,41.6,18.7,47.9,40.3c0.5,1.7,5.3,7.3,6.3,3.1c4.2-18.1,18.1-33.9,37-37.1
					c19.2-3.3,37.5,8.3,44.5,26.1c1.8-0.5,3.7-0.9,5.5-1.4c-10.7-22.3-8.1-55,14-69.9c16.3-10.9,38.3-5.2,52.8,6.1
					c10.4,8.1,17.2,19.3,20.7,31.9c1.8-0.5,3.7-0.9,5.5-1.4c-8-16.1-3.1-37.4,12.3-47.3c15.8-10.1,36.8-3.9,47.4,10.7
					c-0.5-1.6-1.1-3.1-1.6-4.7v122.4c0.6-0.8,1.2-1.6,1.8-2.4H30.5c-10.1,0-20.7-1-30.7,0h-1.3c1.6,2.3,3.3,4.6,4.9,6.9v-79.4
					c0-2.2-1.2-5.2-3.2-6.3C-1.6,527.7-3.4,528.1-3.4,530.4L-3.4,530.4z"/>
			</g>
		</g>
		<g>
			<defs>
				<rect id="SVGID_19_" width="792" height="612"/>
			</defs>
			<clipPath id="SVGID_20_">
				<use xlink:href="#SVGID_19_"  style="overflow:visible;"/>
			</clipPath>
			<g class="st12">
				<path class="st10" d="M61.4,421.7c-11.2,9.3-19,24.4-17.4,39.2c1.4,12.5,12.4,27.6,26.5,23.9c12.3-3.2,24.6-17.6,18.9-30.5
					c-2.2-4.9-6.5-10.2-12.1-11.1c-7.2-1.2-12.1,4.7-11.7,11.5c0.1,2.1,1.9,4.6,3.5,5.9c0.8,0.7,3.1,2.3,3,0
					c-0.3-5.1,3.4-9.4,8.7-9.3c5.7,0.1,3.6,7.1,1.9,10.6c-3.8,7.6-13.5,15.7-22.3,15.2c-12.6-0.8-10.6-16.7-8-25.4
					c2.7-8.7,7.9-16.2,14.9-22C69.4,428,63.3,420.1,61.4,421.7L61.4,421.7z"/>
			</g>
		</g>
		<g>
			<defs>
				<rect id="SVGID_21_" width="792" height="612"/>
			</defs>
			<clipPath id="SVGID_22_">
				<use xlink:href="#SVGID_21_"  style="overflow:visible;"/>
			</clipPath>
			<g class="st13">
				<path class="st10" d="M263.4,443.9c-2.7,11.3,8.3,19,18.7,16.6c4.5-1.1,9.5-3.9,10.9-8.7c1.5-5-2.5-9.1-7.4-9.2
					c-2.2-0.1-5.3,0.5-6.4,2.7c-1,2,0.8,3.6,2.8,3.6c2.4,0.1,1.5,3.7,0.4,4.7c-1.5,1.4-3.5,1-5.2,0.1c-3.9-2-5-6.6-4.1-10.6
					C274.2,438.9,264.3,440.1,263.4,443.9L263.4,443.9z"/>
			</g>
		</g>
		<g>
			<defs>
				<rect id="SVGID_23_" width="792" height="612"/>
			</defs>
			<clipPath id="SVGID_24_">
				<use xlink:href="#SVGID_23_"  style="overflow:visible;"/>
			</clipPath>
			<g class="st14">
				<path class="st10" d="M368.8,480.9c-1.8,2.9-7,11.5-11.3,8.6c-2-1.3-3.1-4.3-3-6.6c0-1,0.2-2.1,0.7-3c0.4-0.4,0.8-0.9,1.2-1.3
					c1.9-0.9,1.2-1.4-2.2-1.4c1.7,1,4.9,1.9,6.9,1.4c1.6-0.4,2.2-0.9,0.4-1.9c-4-2.3-11.6-4-15.2,0c-3.8,4.1-0.6,10.2,3.2,13
					c4.3,3.1,10.6,4.5,15.8,3.9c6.5-0.7,10.1-5.5,13.3-10.7C379.2,482.1,370.3,478.6,368.8,480.9z"/>
			</g>
		</g>
		<g>
			<defs>
				<rect id="SVGID_25_" width="792" height="612"/>
			</defs>
			<clipPath id="SVGID_26_">
				<use xlink:href="#SVGID_25_"  style="overflow:visible;"/>
			</clipPath>
			<g class="st15">
				<path class="st10" d="M499.9,490.1c3.8,3,7,7.6,7.4,12.6c0.2,2.1-0.2,5.3-2.2,6.4c-2.1,1.1-3.2-2.3-3.8-4.1
					c-0.8-2.4-10.5-2.8-9.7-0.2c2.7,8.1,14.4,11.7,21.7,7.3c9.1-5.5,1.2-18.2-4.6-22.8c-1.7-1.4-4.6-1.7-6.7-1.5
					C501,488,498.2,488.7,499.9,490.1L499.9,490.1z"/>
			</g>
		</g>
		<g>
			<defs>
				<rect id="SVGID_27_" width="792" height="612"/>
			</defs>
			<clipPath id="SVGID_28_">
				<use xlink:href="#SVGID_27_"  style="overflow:visible;"/>
			</clipPath>
			<g class="st16">
				<path class="st10" d="M561,455.7c-8,3.1-12.2,14.4-9.9,22.4c2.5,8.9,14.9,12,22.9,12.5c7.2,0.4,20.2-3.7,16.6-13.6
					c-2.2-6-16.9-10.3-18.1-1.8c-0.4,2.8,9.4,4.7,9.7,2.4c0.1-0.9-1.6-3.9-2.1-3.5c0.5-0.5,1.1,3.8,1.1,4.2c-0.2,2-1.2,3.8-2.6,5.2
					c-4.1,3.9-12,4-15.9-0.3c-5.6-6.1-1.2-20.8,6.2-23.7C572.1,458.3,563.4,454.8,561,455.7L561,455.7z"/>
			</g>
		</g>
		<g>
			<defs>
				<rect id="SVGID_29_" width="792" height="612"/>
			</defs>
			<clipPath id="SVGID_30_">
				<use xlink:href="#SVGID_29_"  style="overflow:visible;"/>
			</clipPath>
			<g class="st17">
				<path class="st10" d="M148.2,547.9c5.8,1.6,8.6,8.5,10.5,13.7c0.7,1.9,1.4,3.9,1.1,6l-0.6,2.1c0.7-0.9,0.4-1.1-1.1-0.6
					c-3.4-0.6-8-0.7-7.1-5.7c0.4-2.5-8.6,0.3-9.2,3.2c-2.2,12.4,20.2,8.3,25,2.6c4.1-4.9,1.6-10.9-0.7-16.1
					c-2.3-5.1-5.3-9.1-10.8-10.7C152.7,541.8,144.6,546.9,148.2,547.9L148.2,547.9z"/>
			</g>
		</g>
		<g>
			<defs>
				<rect id="SVGID_31_" width="792" height="612"/>
			</defs>
			<clipPath id="SVGID_32_">
				<use xlink:href="#SVGID_31_"  style="overflow:visible;"/>
			</clipPath>
			<g class="st18">
				<path class="st10" d="M345.1,552.9c-0.2,5.2-1.8,12.3,1.7,16.7c2.8,3.4,7.8,5.6,11.7,7.3c8.7,3.9,19.2,5.8,27.5,0.1
					c7.9-5.5,10.6-16.8,5.8-25.2c-4-7-14.9-11.2-22.7-9.5c-1,0.2,2.9,1.9,3.1,1.9c1.7,0.6,4.2,1.6,6.1,1.2c2.4-0.2,2.8-0.3,1-0.5
					c-1.7-0.4-1.5,0,0.6,1.3c1,1,1.8,2.1,2.5,3.3c1.4,2.4,2,5.3,2.1,8.1c0.2,5.6-2,11.3-6.2,15.1c-5.6,5-12.5,5.9-18.8,1.9
					c-6.9-4.3-5.2-11.8-4.9-18.9C354.7,553.9,345.1,552.4,345.1,552.9L345.1,552.9z"/>
			</g>
		</g>
		<g>
			<defs>
				<rect id="SVGID_33_" width="792" height="612"/>
			</defs>
			<clipPath id="SVGID_34_">
				<use xlink:href="#SVGID_33_"  style="overflow:visible;"/>
			</clipPath>
			<g class="st19">
				<path class="st10" d="M623.2,530.8c2.7,14,9.3,27.4,18.6,38.3c4.4,5.1,9.3,9.2,16,10.3c6.2,1,13.3-0.4,17.3-5.6
					c5.8-7.6,6.2-25.2-3-30.9c-4.1-2.6-12.3-1.6-12.6,4.3c-0.2,4.1,3.3,10,6.8,12c1,0.6-0.6-3.5-0.7-3.6c-0.8-1.6-1.9-4.1-3.5-5.1
					c1.4,4.4,2.5,5.1,3.5,2c0.6-0.6,1.3-1.1,2.2-1.4c1.2-0.5,2.7-0.6,4-0.6c1.2,0,2.3,0.2,3.4,0.6c-1.1-2.7-1.6-2.9-1.3-0.6
					c-0.4,1.3-0.1,3.2-0.2,4.6c-0.8,7.8-4.9,13.9-12.8,15.6c-18.7,3.8-29.8-17.4-32.8-32.6c-0.4-2.1-1.7-4.4-3-6.2
					C624.8,531.3,622.8,528.7,623.2,530.8z"/>
			</g>
		</g>
		<g>
			<defs>
				<rect id="SVGID_35_" width="792" height="612"/>
			</defs>
			<clipPath id="SVGID_36_">
				<use xlink:href="#SVGID_35_"  style="overflow:visible;"/>
			</clipPath>
			<g class="st20">
				<path class="st10" d="M711.2,376.7c10.9,3.3,22.4,7.5,29.2,17.4c2.9,4.2,4.9,9.5,4.5,14.7c-0.3,3.3-2,6.1-5.4,6.7
					c-3.3,0.5-6.3-1.9-5.1-5.4c1.5-4.3-8.4-5.3-9.6-1.6c-5.6,16.2,29.6,18.5,30.2-0.5c0.6-20.9-21.9-31.4-38.6-36.5
					c-2-0.6-5.4-0.8-6.8,1.1C708,374.3,709.3,376.1,711.2,376.7L711.2,376.7z"/>
			</g>
		</g>
		<g>
			<defs>
				<rect id="SVGID_37_" width="792" height="612"/>
			</defs>
			<clipPath id="SVGID_38_">
				<use xlink:href="#SVGID_37_"  style="overflow:visible;"/>
			</clipPath>
			<g class="st21">
				<path class="st10" d="M718.9,378.9c12.4,5.1,26.3,6.3,39.3,2.9c11.7-3,24.8-9.9,26.2-23.2c1.3-11.7-7.6-23.3-20-21.9
					c-4.5,0.5-9.3,3.7-9.3,8.7c0,5.4,6.3,7.7,10.8,6.6c6.3-1.5-0.9-5.7-4.5-4.9c-0.3,0.1-0.6,0.1-1,0.2c1.7,0.2,3.3,0.4,5,0.7
					c-1.4-0.5,0.2-9.5,5-4.4c2.1,2.2,3.3,5.2,3.9,8.1c1.3,7-1.5,14.3-7.1,18.5c-12,9.1-28.9,10.8-42.7,5.1c-1.8-0.7-5.3-1.5-6.9,0
					C715.9,376.7,717.2,378.2,718.9,378.9L718.9,378.9z"/>
			</g>
		</g>
		<g>
			<defs>
				<rect id="SVGID_39_" width="792" height="612"/>
			</defs>
			<clipPath id="SVGID_40_">
				<use xlink:href="#SVGID_39_"  style="overflow:visible;"/>
			</clipPath>
			<g class="st22">
				<path class="st10" d="M716.2,313.3c7.1-3.9,14.4-7.1,22.5-7.9c4.7-0.4,20.9,0.3,20.4,7.7c-0.3,4.4,7.4,9.7,7.8,3.6
					c0.8-11.6-10.8-18.5-20.8-20.3c-12.3-2.1-24.3,2.4-34.9,8.2C707.1,306.9,712.1,315.6,716.2,313.3L716.2,313.3z"/>
			</g>
		</g>
		<g>
			<defs>
				<rect id="SVGID_41_" width="792" height="612"/>
			</defs>
			<clipPath id="SVGID_42_">
				<use xlink:href="#SVGID_41_"  style="overflow:visible;"/>
			</clipPath>
			<g class="st23">
				
					<radialGradient id="SVGID_43_" cx="81.4" cy="144.7" r="415.5" gradientTransform="matrix(1 0 0 -1 0 613)" gradientUnits="userSpaceOnUse">
					<stop  offset="0.1" style="stop-color:#000000"/>
					<stop  offset="0.1108" style="stop-color:#000000"/>
					<stop  offset="0.1525" style="stop-color:#050000"/>
					<stop  offset="0.1996" style="stop-color:#211800"/>
					<stop  offset="0.2529" style="stop-color:#34290B"/>
					<stop  offset="0.3152" style="stop-color:#423512"/>
					<stop  offset="0.3922" style="stop-color:#4C3E16"/>
					<stop  offset="0.5002" style="stop-color:#524318"/>
					<stop  offset="0.8" style="stop-color:#544418"/>
					<stop  offset="1" style="stop-color:#000000"/>
				</radialGradient>
				<circle class="st24" cx="81.4" cy="468.3" r="415.5"/>
				
					<radialGradient id="SVGID_44_" cx="387.03" cy="377.16" r="13.851" gradientTransform="matrix(1 0 0 -1 0 613)" gradientUnits="userSpaceOnUse">
					<stop  offset="0" style="stop-color:#CAE095"/>
					<stop  offset="2.389400e-02" style="stop-color:#AFC082"/>
					<stop  offset="9.433800e-02" style="stop-color:#79815A"/>
					<stop  offset="0.1703" style="stop-color:#50543B"/>
					<stop  offset="0.2502" style="stop-color:#333524"/>
					<stop  offset="0.3348" style="stop-color:#1C1D0F"/>
					<stop  offset="0.4256" style="stop-color:#030300"/>
					<stop  offset="0.525" style="stop-color:#000000"/>
					<stop  offset="0.6374" style="stop-color:#000000"/>
					<stop  offset="0.7736" style="stop-color:#000000"/>
					<stop  offset="1" style="stop-color:#000000"/>
				</radialGradient>
				<circle class="st25" cx="387" cy="235.8" r="13.9"/>
				
					<radialGradient id="SVGID_45_" cx="520.1" cy="478.4" r="13.846" gradientTransform="matrix(1 0 0 -1 0 613)" gradientUnits="userSpaceOnUse">
					<stop  offset="0" style="stop-color:#CAE095"/>
					<stop  offset="2.389400e-02" style="stop-color:#AFC082"/>
					<stop  offset="9.433800e-02" style="stop-color:#79815A"/>
					<stop  offset="0.1703" style="stop-color:#50543B"/>
					<stop  offset="0.2502" style="stop-color:#333524"/>
					<stop  offset="0.3348" style="stop-color:#1C1D0F"/>
					<stop  offset="0.4256" style="stop-color:#030300"/>
					<stop  offset="0.525" style="stop-color:#000000"/>
					<stop  offset="0.6374" style="stop-color:#000000"/>
					<stop  offset="0.7736" style="stop-color:#000000"/>
					<stop  offset="1" style="stop-color:#000000"/>
				</radialGradient>
				<circle class="st26" cx="520.1" cy="134.6" r="13.9"/>
				
					<radialGradient id="SVGID_46_" cx="502.6" cy="465" r="103.9" gradientTransform="matrix(1 0 0 -1 0 613)" gradientUnits="userSpaceOnUse">
					<stop  offset="5.000000e-02" style="stop-color:#000000"/>
					<stop  offset="0.1912" style="stop-color:#000800"/>
					<stop  offset="0.3325" style="stop-color:#072D0F"/>
					<stop  offset="0.4638" style="stop-color:#17461D"/>
					<stop  offset="0.5812" style="stop-color:#205A26"/>
					<stop  offset="0.6806" style="stop-color:#26672B"/>
					<stop  offset="0.75" style="stop-color:#286C2C"/>
					<stop  offset="0.7553" style="stop-color:#336C2A"/>
					<stop  offset="0.7931" style="stop-color:#5B6C1A"/>
					<stop  offset="0.8244" style="stop-color:#6E6B07"/>
					<stop  offset="0.8475" style="stop-color:#776B00"/>
					<stop  offset="0.86" style="stop-color:#7B6B00"/>
					<stop  offset="0.8801" style="stop-color:#786800"/>
					<stop  offset="0.898" style="stop-color:#6F6100"/>
					<stop  offset="0.9151" style="stop-color:#635500"/>
					<stop  offset="0.9317" style="stop-color:#524500"/>
					<stop  offset="0.9479" style="stop-color:#3E3300"/>
					<stop  offset="0.9639" style="stop-color:#271E00"/>
					<stop  offset="0.9796" style="stop-color:#090000"/>
					<stop  offset="0.9948" style="stop-color:#000000"/>
					<stop  offset="1" style="stop-color:#000000"/>
				</radialGradient>
				<circle class="st27" cx="502.6" cy="148" r="103.9"/>
				<line class="st28" x1="169.1" y1="401.6" x2="520.1" y2="134.6"/>
				
					<radialGradient id="SVGID_47_" cx="169.1" cy="211.4" r="277" gradientTransform="matrix(1 0 0 -1 0 613)" gradientUnits="userSpaceOnUse">
					<stop  offset="0" style="stop-color:#000000"/>
					<stop  offset="0.73" style="stop-color:#93432A"/>
					<stop  offset="1" style="stop-color:#000000"/>
				</radialGradient>
				<circle class="st29" cx="169.1" cy="401.6" r="277"/>
				
					<radialGradient id="SVGID_48_" cx="169.1" cy="211.4" r="138.5" gradientTransform="matrix(1 0 0 -1 0 613)" gradientUnits="userSpaceOnUse">
					<stop  offset="0.15" style="stop-color:#FFFFFF"/>
					<stop  offset="0.2134" style="stop-color:#D7C0BE"/>
					<stop  offset="0.2931" style="stop-color:#B68A8A"/>
					<stop  offset="0.362" style="stop-color:#A16A6B"/>
					<stop  offset="0.4166" style="stop-color:#95585B"/>
					<stop  offset="0.45" style="stop-color:#915155"/>
					<stop  offset="0.5442" style="stop-color:#78312E"/>
					<stop  offset="0.6472" style="stop-color:#5C0E05"/>
					<stop  offset="0.7362" style="stop-color:#410000"/>
					<stop  offset="0.8068" style="stop-color:#200000"/>
					<stop  offset="0.85" style="stop-color:#000000"/>
					<stop  offset="0.856" style="stop-color:#120000"/>
					<stop  offset="0.8623" style="stop-color:#300000"/>
					<stop  offset="0.8686" style="stop-color:#470000"/>
					<stop  offset="0.875" style="stop-color:#5C0000"/>
					<stop  offset="0.8815" style="stop-color:#751400"/>
					<stop  offset="0.888" style="stop-color:#912A15"/>
					<stop  offset="0.8945" style="stop-color:#B44126"/>
					<stop  offset="0.9" style="stop-color:#D65836"/>
					<stop  offset="0.9063" style="stop-color:#BD472B"/>
					<stop  offset="0.916" style="stop-color:#9D311B"/>
					<stop  offset="0.9262" style="stop-color:#801D09"/>
					<stop  offset="0.9367" style="stop-color:#690900"/>
					<stop  offset="0.9475" style="stop-color:#530000"/>
					<stop  offset="0.9588" style="stop-color:#410000"/>
					<stop  offset="0.9707" style="stop-color:#290000"/>
					<stop  offset="0.9838" style="stop-color:#0F0000"/>
					<stop  offset="1" style="stop-color:#000000"/>
				</radialGradient>
				<circle class="st30" cx="169.1" cy="401.6" r="138.5"/>
				
					<radialGradient id="SVGID_49_" cx="169.1" cy="211.4" r="115.4" gradientTransform="matrix(1 0 0 -1 0 613)" gradientUnits="userSpaceOnUse">
					<stop  offset="0.15" style="stop-color:#FFFFFF"/>
					<stop  offset="0.2824" style="stop-color:#9C9593"/>
					<stop  offset="0.4253" style="stop-color:#5A5250"/>
					<stop  offset="0.5636" style="stop-color:#302A28"/>
					<stop  offset="0.6936" style="stop-color:#0F0704"/>
					<stop  offset="0.8134" style="stop-color:#000000"/>
					<stop  offset="0.9192" style="stop-color:#000000"/>
					<stop  offset="1" style="stop-color:#000000"/>
				</radialGradient>
				<circle class="st31" cx="169.1" cy="401.6" r="115.4"/>
				<polyline class="st32" points="169.1,401.6 332.4,480.2 169.1,401.6 5.8,323 169.1,401.6 90.5,564.9 169.1,401.6 247.7,238.3 
					169.1,401.6 360.4,653.3 169.1,401.6 -22.1,149.9 169.1,401.6 -82.6,592.9 169.1,401.6 420.9,210.3 169.1,401.6 168.6,406.3 
					169.1,401.6 169.7,396.9 169.1,401.6 164.5,401.1 169.1,401.6 173.8,402.1 169.1,401.6 176.8,412.7 169.1,401.6 161.4,390.6 
					169.1,401.6 158.1,409.3 169.1,401.6 180.2,393.9 169.1,401.6 272.8,642 169.1,401.6 65.5,161.2 169.1,401.6 -71.3,505.2 
					169.1,401.6 409.5,298 169.1,401.6 466.7,550.3 169.1,401.6 -128.4,252.9 169.1,401.6 20.4,699.1 169.1,401.6 317.8,104.1 
					169.1,401.6 279.2,461.7 169.1,401.6 59,341.5 169.1,401.6 109.1,511.7 169.1,401.6 229.2,291.5 169.1,401.6 405.2,969.6 
					169.1,401.6 -66.9,-166.4 169.1,401.6 -398.8,637.7 169.1,401.6 737.1,165.5 169.1,401.6 432.4,709.2 169.1,401.6 -94.2,94 
					169.1,401.6 -138.4,664.9 169.1,401.6 476.7,138.3 169.1,401.6 114,708.5 169.1,401.6 224.3,94.7 169.1,401.6 -137.8,346.4 
					169.1,401.6 476,456.8 169.1,401.6 467.1,691.8 169.1,401.6 -128.8,111.4 169.1,401.6 -121,699.5 169.1,401.6 459.3,103.7 
					169.1,401.6 201,447.7 169.1,401.6 137.3,355.5 169.1,401.6 123,433.4 169.1,401.6 215.3,369.8 169.1,401.6 242.3,564.3 
					169.1,401.6 95.9,238.9 169.1,401.6 6.4,474.8 169.1,401.6 331.8,328.4 169.1,401.6 119.1,1035.3 169.1,401.6 219.1,-232.1 
					169.1,401.6 -464.6,351.6 169.1,401.6 802.9,451.6 169.1,401.6 40.3,960.4 169.1,401.6 298,-157.2 169.1,401.6 -389.7,272.7 
					169.1,401.6 727.9,530.5 				"/>
				
					<radialGradient id="SVGID_50_" cx="520.1" cy="478.4" r="207.8" gradientTransform="matrix(1 0 0 -1 0 613)" gradientUnits="userSpaceOnUse">
					<stop  offset="0.64" style="stop-color:#000000"/>
					<stop  offset="0.7002" style="stop-color:#000000"/>
					<stop  offset="0.7219" style="stop-color:#000000"/>
					<stop  offset="0.7374" style="stop-color:#000000"/>
					<stop  offset="0.7499" style="stop-color:#000000"/>
					<stop  offset="0.7606" style="stop-color:#000000"/>
					<stop  offset="0.7701" style="stop-color:#000100"/>
					<stop  offset="0.7787" style="stop-color:#001200"/>
					<stop  offset="0.7866" style="stop-color:#002300"/>
					<stop  offset="0.7936" style="stop-color:#003306"/>
					<stop  offset="0.8" style="stop-color:#004510"/>
					<stop  offset="0.8034" style="stop-color:#0F3E0A"/>
					<stop  offset="0.812" style="stop-color:#272F00"/>
					<stop  offset="0.8207" style="stop-color:#302000"/>
					<stop  offset="0.8292" style="stop-color:#351000"/>
					<stop  offset="0.8375" style="stop-color:#380000"/>
					<stop  offset="0.8455" style="stop-color:#390000"/>
					<stop  offset="0.8531" style="stop-color:#3A0000"/>
					<stop  offset="0.86" style="stop-color:#3A0000"/>
					<stop  offset="0.8632" style="stop-color:#310000"/>
					<stop  offset="0.8694" style="stop-color:#220000"/>
					<stop  offset="0.8765" style="stop-color:#150000"/>
					<stop  offset="0.8841" style="stop-color:#090000"/>
					<stop  offset="0.8926" style="stop-color:#010000"/>
					<stop  offset="0.9021" style="stop-color:#000000"/>
					<stop  offset="0.9132" style="stop-color:#000000"/>
					<stop  offset="0.927" style="stop-color:#000000"/>
					<stop  offset="0.9464" style="stop-color:#000000"/>
					<stop  offset="1" style="stop-color:#000000"/>
				</radialGradient>
				<circle class="st33" cx="520.1" cy="134.6" r="207.8"/>
				
					<radialGradient id="SVGID_51_" cx="403.26" cy="389.5" r="18.393" gradientTransform="matrix(1 0 0 -1 0 613)" gradientUnits="userSpaceOnUse">
					<stop  offset="0.1" style="stop-color:#000000"/>
					<stop  offset="0.1575" style="stop-color:#000000"/>
					<stop  offset="0.2709" style="stop-color:#0B1D1E"/>
					<stop  offset="0.3872" style="stop-color:#20393D"/>
					<stop  offset="0.5047" style="stop-color:#2F5259"/>
					<stop  offset="0.6234" style="stop-color:#396874"/>
					<stop  offset="0.7442" style="stop-color:#417889"/>
					<stop  offset="0.8681" style="stop-color:#448396"/>
					<stop  offset="1" style="stop-color:#46879B"/>
				</radialGradient>
				<circle class="st34" cx="403.3" cy="223.5" r="18.4"/>
				
					<radialGradient id="SVGID_52_" cx="161.8" cy="205.8" r="45.2" gradientTransform="matrix(1 0 0 -1 0 613)" gradientUnits="userSpaceOnUse">
					<stop  offset="0.1" style="stop-color:#000000"/>
					<stop  offset="0.2117" style="stop-color:#000000"/>
					<stop  offset="0.336" style="stop-color:#0D0000"/>
					<stop  offset="0.4632" style="stop-color:#211000"/>
					<stop  offset="0.5919" style="stop-color:#2E1D06"/>
					<stop  offset="0.7227" style="stop-color:#38260E"/>
					<stop  offset="0.857" style="stop-color:#3E2B12"/>
					<stop  offset="1" style="stop-color:#402D14"/>
				</radialGradient>
				<circle class="st35" cx="161.8" cy="407.2" r="45.2"/>
				
					<radialGradient id="SVGID_53_" cx="102.5" cy="160.7" r="68.2" gradientTransform="matrix(1 0 0 -1 0 613)" gradientUnits="userSpaceOnUse">
					<stop  offset="0.1" style="stop-color:#000000"/>
					<stop  offset="0.1505" style="stop-color:#000000"/>
					<stop  offset="0.2648" style="stop-color:#00000D"/>
					<stop  offset="0.3821" style="stop-color:#081728"/>
					<stop  offset="0.5005" style="stop-color:#14253D"/>
					<stop  offset="0.6203" style="stop-color:#1A304D"/>
					<stop  offset="0.7421" style="stop-color:#1E385A"/>
					<stop  offset="0.867" style="stop-color:#203D62"/>
					<stop  offset="1" style="stop-color:#213E65"/>
				</radialGradient>
				<circle class="st36" cx="102.5" cy="452.3" r="68.2"/>
				
					<radialGradient id="SVGID_54_" cx="241" cy="266.1" r="44.9" gradientTransform="matrix(1 0 0 -1 0 613)" gradientUnits="userSpaceOnUse">
					<stop  offset="0.1" style="stop-color:#000000"/>
					<stop  offset="0.1072" style="stop-color:#000000"/>
					<stop  offset="0.2274" style="stop-color:#000000"/>
					<stop  offset="0.3507" style="stop-color:#0D181E"/>
					<stop  offset="0.4751" style="stop-color:#1A2932"/>
					<stop  offset="0.601" style="stop-color:#223541"/>
					<stop  offset="0.7289" style="stop-color:#273F4D"/>
					<stop  offset="0.8602" style="stop-color:#2B4454"/>
					<stop  offset="1" style="stop-color:#2C4656"/>
				</radialGradient>
				<circle class="st37" cx="241" cy="346.9" r="44.9"/>
				
					<radialGradient id="SVGID_55_" cx="452.2" cy="426.7" r="57.7" gradientTransform="matrix(1 0 0 -1 0 613)" gradientUnits="userSpaceOnUse">
					<stop  offset="0.1" style="stop-color:#000000"/>
					<stop  offset="0.1575" style="stop-color:#000000"/>
					<stop  offset="0.2709" style="stop-color:#0B1D1E"/>
					<stop  offset="0.3872" style="stop-color:#20393D"/>
					<stop  offset="0.5047" style="stop-color:#2F5259"/>
					<stop  offset="0.6234" style="stop-color:#396874"/>
					<stop  offset="0.7442" style="stop-color:#417889"/>
					<stop  offset="0.8681" style="stop-color:#448396"/>
					<stop  offset="1" style="stop-color:#46879B"/>
				</radialGradient>
				<circle class="st38" cx="452.2" cy="186.3" r="57.7"/>
			</g>
		</g>
	</g>
</g>
</svg>
